<?xml version="1.0" encoding="iso-8859-1"?>
<!-- Uploaded to: SVG Repo, www.svgrepo.com, Generator: SVG Repo Mixer Tools -->
<svg fill="#000000" height="800px" width="800px" version="1.1" id="Layer_1" xmlns="http://www.w3.org/2000/svg" xmlns:xlink="http://www.w3.org/1999/xlink" 
	 viewBox="0 0 512.001 512.001" xml:space="preserve">
<g>
	<g>
		<g>
			<path d="M256,253.694c-98.367,0-177.581,80.106-177.581,177.581v61.375c0,10.687,8.664,19.351,19.351,19.351h316.46
				c10.687,0,19.352-8.664,19.352-19.351v-61.375C433.581,333.567,354.202,253.694,256,253.694z M317.69,306.876L256,368.566
				l-61.69-61.69C232.353,287.933,278.19,287.208,317.69,306.876z M117.121,473.297v-42.024c0-40.313,17.272-76.663,44.796-102.057
				l80.399,80.399c7.556,7.557,19.809,7.557,27.367,0l80.399-80.399c27.524,25.393,44.796,61.744,44.796,102.057v42.024H117.121z"/>
			<path d="M156.132,238.432h99.867h99.866c10.687,0,19.352-8.664,19.352-19.352v-99.867c0-0.034-0.005-0.066-0.005-0.099
				C375.157,53.757,322.191,0,256,0c-65.622,0-119.159,53.351-119.213,119.115c0,0.034-0.005,0.066-0.005,0.099v99.867
				C136.781,229.768,145.445,238.432,156.132,238.432z M326.872,81.049c-37.613,15.147-81.51-0.609-100.764-36.569
				C263.888,29.323,307.296,44.844,326.872,81.049z M194.535,67.294c28.529,48.199,88.414,70.447,141.966,51.485
				c0.001,0.146,0.01,0.289,0.01,0.435c0,44.394-36.118,80.511-80.511,80.511C187.613,199.727,150.453,119.399,194.535,67.294z"/>
		</g>
	</g>
</g>
</svg>