<svg width="44" height="26" viewBox="0 0 44 26" fill="none" xmlns="http://www.w3.org/2000/svg">
<path d="M1.26953 26C0.683594 26 0.390625 25.6777 0.390625 25.0332V1.75977C0.390625 1.11523 0.683594 0.792969 1.26953 0.792969H8.125C12.1094 0.792969 14.793 1.4375 16.1758 2.72656C17.5586 4.01562 18.25 5.56836 18.25 7.38477C18.25 8.82617 17.6758 10.0508 16.5273 11.0586C15.3789 12.0547 14.2656 12.6406 13.1875 12.8164V12.8691C14.3711 12.9746 15.6895 13.5664 17.1426 14.6445C18.6074 15.7109 19.3398 17.1641 19.3398 19.0039C19.3398 20.9961 18.6016 22.6602 17.125 23.9961C15.6602 25.332 12.9531 26 9.00391 26H1.26953ZM3.76562 23.1172H8.44141C10.9609 23.1172 12.8066 22.8066 13.9785 22.1855C15.1504 21.5645 15.7363 20.4688 15.7363 18.8984C15.7363 17.4453 15.1387 16.3203 13.9434 15.5234C12.7598 14.7266 10.9258 14.3281 8.44141 14.3281H3.76562V23.1172ZM3.76562 11.7969H8.17773C10.1348 11.7969 11.7285 11.3809 12.959 10.5488C14.2012 9.70508 14.8223 8.65039 14.8223 7.38477C14.8223 6.17773 14.3594 5.25781 13.4336 4.625C12.5078 3.99219 10.7559 3.67578 8.17773 3.67578H3.76562V11.7969ZM25.1406 26C24.5547 26 24.2617 25.6777 24.2617 25.0332V1.75977C24.2617 1.11523 24.5547 0.792969 25.1406 0.792969H26.7578C27.3438 0.792969 27.6367 1.11523 27.6367 1.75977V11.709H28.375C29.7109 11.709 30.7773 11.375 31.5742 10.707C32.3828 10.0273 33.1328 9.18359 33.8242 8.17578L38.3945 1.47852C38.7109 1.02148 39.1211 0.792969 39.625 0.792969H41.6816C42.4316 0.792969 42.5371 1.17969 41.998 1.95312L36.6016 9.61719C35.9688 10.5078 35.2598 11.2812 34.4746 11.9375C33.7012 12.582 33.1621 12.9629 32.8574 13.0801V13.0977C33.5137 13.2383 34.1934 13.5547 34.8965 14.0469C35.5996 14.5273 36.4609 15.5469 37.4805 17.1055L42.543 24.8398C43.0469 25.6133 42.9414 26 42.2266 26H39.9941C39.4434 26 39.0332 25.7715 38.7637 25.3145L34.8789 18.8281C34.1172 17.5625 33.1973 16.5312 32.1191 15.7344C31.0527 14.9258 29.8926 14.5215 28.6387 14.5215H27.6367V25.0332C27.6367 25.6777 27.3438 26 26.7578 26H25.1406Z" fill="white"/>
</svg>
